<svg xmlns="http://www.w3.org/2000/svg" viewBox="0 0 512 512" fill="none" shape-rendering="geometricPrecision">

  <defs>
    <linearGradient id="BG" x1="0" y1="0" x2="0" y2="1">
      <stop offset="0" stop-color="#2a8a85"></stop>
      <stop offset="1" stop-color="#0c3a37"></stop>
    </linearGradient>
    <radialGradient id="GL" cx="30%" cy="22%" r="75%">
      <stop offset="0" stop-color="#7fd9d2" stop-opacity="0.42"></stop>
      <stop offset="1" stop-color="#7fd9d2" stop-opacity="0"></stop>
    </radialGradient>
  </defs>
  <rect width="512" height="512" rx="104" fill="url(#BG)"></rect>
  <rect width="512" height="512" rx="104" fill="url(#GL)"></rect>
  <g stroke="#b5ece6" stroke-opacity="0.09" stroke-width="1.5">
    <path d="M64 64V448M128 64V448M192 64V448M256 64V448M320 64V448M384 64V448M448 64V448"></path>
    <path d="M64 64H448M64 128H448M64 192H448M64 256H448M64 320H448M64 384H448M64 448H448"></path>
  </g>
  
  <ellipse cx="178" cy="318" rx="68" ry="50" stroke="#5fe0d0" stroke-width="4" stroke-opacity="0.25"></ellipse>
  <ellipse cx="178" cy="318" rx="44" ry="32" stroke="#5fe0d0" stroke-width="4" stroke-opacity="0.45"></ellipse>
  <ellipse cx="178" cy="318" rx="22" ry="16" stroke="#5fe0d0" stroke-width="5" stroke-opacity="0.70"></ellipse>
  <circle cx="178" cy="318" r="9" fill="#5fe0d0" stroke="#08332f" stroke-width="4"></circle>

  
  <ellipse cx="318" cy="200" rx="88" ry="66" stroke="#ff8a3d" stroke-width="4" stroke-opacity="0.22"></ellipse>
  <ellipse cx="318" cy="200" rx="60" ry="44" stroke="#ff8a3d" stroke-width="4.5" stroke-opacity="0.42"></ellipse>
  <ellipse cx="318" cy="200" rx="34" ry="24" stroke="#ff8a3d" stroke-width="5" stroke-opacity="0.70"></ellipse>
  <circle cx="318" cy="200" r="14" fill="#ff8a3d" stroke="#08332f" stroke-width="5"></circle>
  <circle cx="318" cy="200" r="5" fill="#08332f"></circle>

  
  <circle cx="140" cy="190" r="6" fill="#eafffb" fill-opacity="0.55"></circle>
  <circle cx="240" cy="140" r="5" fill="#eafffb" fill-opacity="0.45"></circle>
  <circle cx="380" cy="290" r="7" fill="#eafffb" fill-opacity="0.50"></circle>
  <circle cx="360" cy="150" r="5" fill="#ffc266" fill-opacity="0.70"></circle>
  <circle cx="210" cy="370" r="6" fill="#7fe6dc" fill-opacity="0.65"></circle>
  <circle cx="420" cy="340" r="5" fill="#eafffb" fill-opacity="0.40"></circle>
  <circle cx="130" cy="260" r="5" fill="#7fe6dc" fill-opacity="0.55"></circle>
  <circle cx="290" cy="360" r="5" fill="#eafffb" fill-opacity="0.40"></circle>
  <circle cx="420" cy="190" r="6" fill="#ffc266" fill-opacity="0.60"></circle>

  
  <g stroke="#08332f" stroke-linejoin="round" stroke-width="4">
    <rect x="340" y="348" width="22" height="40" fill="#eafffb" fill-opacity="0.80"></rect>
    <rect x="368" y="330" width="22" height="58" fill="#7fe6dc" fill-opacity="0.85"></rect>
    <rect x="396" y="312" width="22" height="76" fill="#ff8a3d" fill-opacity="0.90"></rect>
  </g>
  <path d="M334 394 H424" stroke="#eafffb" stroke-width="4" stroke-linecap="round" stroke-opacity="0.70"></path>

<path d="M256 68 L272 82 L256 96 L240 82 Z" fill="#5eead4" stroke="#08332f" stroke-width="4"></path>
</svg>